<?xml version="1.0" encoding="utf-8"?>
<svg version="1.1" xmlns:xlink="http://www.w3.org/1999/xlink" width="12px" height="12px" viewBox="175 2242.5  12 12" xmlns="http://www.w3.org/2000/svg">
  <path d="M 181 2242.5  C 184.36 2242.5  187 2245.14  187 2248.5  C 187 2251.86  184.36 2254.5  181 2254.5  C 177.64 2254.5  175 2251.86  175 2248.5  C 175 2245.14  177.64 2242.5  181 2242.5  Z " fill-rule="nonzero" fill="#f0f0f0" stroke="none" />
  <path d="M 181 2243  C 184.08 2243  186.5 2245.42  186.5 2248.5  C 186.5 2251.58  184.08 2254  181 2254  C 177.92 2254  175.5 2251.58  175.5 2248.5  C 175.5 2245.42  177.92 2243  181 2243  Z " stroke-width="1" stroke="#797979" fill="none" />
  <path d="M 181 2251.5  C 179.32 2251.5  178 2250.18  178 2248.5  C 178 2246.82  179.32 2245.5  181 2245.5  C 182.68 2245.5  184 2246.82  184 2248.5  C 184 2250.18  182.68 2251.5  181 2251.5  " fill-rule="nonzero" fill="#797979" stroke="none" />
</svg>