<?xml version="1.0" encoding="utf-8"?>
<svg version="1.1" xmlns:xlink="http://www.w3.org/1999/xlink" width="12px" height="12px" viewBox="134 2242.5  12 12" xmlns="http://www.w3.org/2000/svg">
  <path d="M 140 2242.5  C 143.36 2242.5  146 2245.14  146 2248.5  C 146 2251.86  143.36 2254.5  140 2254.5  C 136.64 2254.5  134 2251.86  134 2248.5  C 134 2245.14  136.64 2242.5  140 2242.5  Z " fill-rule="nonzero" fill="#ffffff" stroke="none" />
  <path d="M 140 2243  C 143.08 2243  145.5 2245.42  145.5 2248.5  C 145.5 2251.58  143.08 2254  140 2254  C 136.92 2254  134.5 2251.58  134.5 2248.5  C 134.5 2245.42  136.92 2243  140 2243  Z " stroke-width="1" stroke="#797979" fill="none" />
  <path d="M 140 2251.5  C 138.32 2251.5  137 2250.18  137 2248.5  C 137 2246.82  138.32 2245.5  140 2245.5  C 141.68 2245.5  143 2246.82  143 2248.5  C 143 2250.18  141.68 2251.5  140 2251.5  " fill-rule="nonzero" fill="#797979" stroke="none" />
</svg>