<?xml version="1.0" encoding="utf-8"?>
<svg version="1.1" xmlns:xlink="http://www.w3.org/1999/xlink" width="12px" height="12px" viewBox="134 3024.5  12 12" xmlns="http://www.w3.org/2000/svg">
  <path d="M 140 3024.5  C 143.36 3024.5  146 3027.14  146 3030.5  C 146 3033.86  143.36 3036.5  140 3036.5  C 136.64 3036.5  134 3033.86  134 3030.5  C 134 3027.14  136.64 3024.5  140 3024.5  Z " fill-rule="nonzero" fill="#ffffff" stroke="none" />
  <path d="M 140 3025  C 143.08 3025  145.5 3027.42  145.5 3030.5  C 145.5 3033.58  143.08 3036  140 3036  C 136.92 3036  134.5 3033.58  134.5 3030.5  C 134.5 3027.42  136.92 3025  140 3025  Z " stroke-width="1" stroke="#797979" fill="none" />
  <path d="M 140 3033.5  C 138.32 3033.5  137 3032.18  137 3030.5  C 137 3028.82  138.32 3027.5  140 3027.5  C 141.68 3027.5  143 3028.82  143 3030.5  C 143 3032.18  141.68 3033.5  140 3033.5  " fill-rule="nonzero" fill="#797979" stroke="none" />
</svg>