<?xml version="1.0" encoding="utf-8"?>
<svg version="1.1" xmlns:xlink="http://www.w3.org/1999/xlink" width="12px" height="12px" viewBox="175 3024.5  12 12" xmlns="http://www.w3.org/2000/svg">
  <path d="M 181 3024.5  C 184.36 3024.5  187 3027.14  187 3030.5  C 187 3033.86  184.36 3036.5  181 3036.5  C 177.64 3036.5  175 3033.86  175 3030.5  C 175 3027.14  177.64 3024.5  181 3024.5  Z " fill-rule="nonzero" fill="#ffffff" stroke="none" />
  <path d="M 181 3025  C 184.08 3025  186.5 3027.42  186.5 3030.5  C 186.5 3033.58  184.08 3036  181 3036  C 177.92 3036  175.5 3033.58  175.5 3030.5  C 175.5 3027.42  177.92 3025  181 3025  Z " stroke-width="1" stroke="#797979" fill="none" />
  <path d="M 181 3033.5  C 179.32 3033.5  178 3032.18  178 3030.5  C 178 3028.82  179.32 3027.5  181 3027.5  C 182.68 3027.5  184 3028.82  184 3030.5  C 184 3032.18  182.68 3033.5  181 3033.5  " fill-rule="nonzero" fill="#797979" stroke="none" />
</svg>