<?xml version="1.0" encoding="utf-8"?>
<svg version="1.1" xmlns:xlink="http://www.w3.org/1999/xlink" width="120px" height="120px" xmlns="http://www.w3.org/2000/svg">
  <g transform="matrix(1 0 0 1 -49 -2097 )">
    <path d="M 50 2102  A 4 4 0 0 1 54 2098 L 164 2098  A 4 4 0 0 1 168 2102 L 168 2212  A 4 4 0 0 1 164 2216 L 54 2216  A 4 4 0 0 1 50 2212 L 50 2102  Z " fill-rule="nonzero" fill="#ffffff" stroke="none" />
    <path d="M 49.5 2102  A 4.5 4.5 0 0 1 54 2097.5 L 164 2097.5  A 4.5 4.5 0 0 1 168.5 2102 L 168.5 2212  A 4.5 4.5 0 0 1 164 2216.5 L 54 2216.5  A 4.5 4.5 0 0 1 49.5 2212 L 49.5 2102  Z " stroke-width="1" stroke-dasharray="9,4" stroke="#dddddd" fill="none" stroke-dashoffset="0.5" />
  </g>
</svg>