<?xml version="1.0" encoding="utf-8"?>
<svg version="1.1" xmlns:xlink="http://www.w3.org/1999/xlink" width="12px" height="12px" viewBox="195 2294.5  12 12" xmlns="http://www.w3.org/2000/svg">
  <path d="M 201 2294.5  C 204.36 2294.5  207 2297.14  207 2300.5  C 207 2303.86  204.36 2306.5  201 2306.5  C 197.64 2306.5  195 2303.86  195 2300.5  C 195 2297.14  197.64 2294.5  201 2294.5  Z " fill-rule="nonzero" fill="#ffffff" stroke="none" />
  <path d="M 201 2295  C 204.08 2295  206.5 2297.42  206.5 2300.5  C 206.5 2303.58  204.08 2306  201 2306  C 197.92 2306  195.5 2303.58  195.5 2300.5  C 195.5 2297.42  197.92 2295  201 2295  Z " stroke-width="1" stroke="#797979" fill="none" />
  <path d="M 201 2303.5  C 199.32 2303.5  198 2302.18  198 2300.5  C 198 2298.82  199.32 2297.5  201 2297.5  C 202.68 2297.5  204 2298.82  204 2300.5  C 204 2302.18  202.68 2303.5  201 2303.5  " fill-rule="nonzero" fill="#797979" stroke="none" />
</svg>