<?xml version="1.0" encoding="utf-8"?>
<svg version="1.1" xmlns:xlink="http://www.w3.org/1999/xlink" width="12px" height="12px" viewBox="1175 866.5  12 12" xmlns="http://www.w3.org/2000/svg">
  <path d="M 1181 866.5  C 1184.36 866.5  1187 869.14  1187 872.5  C 1187 875.86  1184.36 878.5  1181 878.5  C 1177.64 878.5  1175 875.86  1175 872.5  C 1175 869.14  1177.64 866.5  1181 866.5  Z " fill-rule="nonzero" fill="#f0f0f0" stroke="none" />
  <path d="M 1181 867  C 1184.08 867  1186.5 869.42  1186.5 872.5  C 1186.5 875.58  1184.08 878  1181 878  C 1177.92 878  1175.5 875.58  1175.5 872.5  C 1175.5 869.42  1177.92 867  1181 867  Z " stroke-width="1" stroke="#797979" fill="none" />
  <path d="M 1181 875.5  C 1179.32 875.5  1178 874.18  1178 872.5  C 1178 870.82  1179.32 869.5  1181 869.5  C 1182.68 869.5  1184 870.82  1184 872.5  C 1184 874.18  1182.68 875.5  1181 875.5  " fill-rule="nonzero" fill="#797979" stroke="none" />
</svg>