<?xml version="1.0" encoding="utf-8"?>
<svg version="1.1" xmlns:xlink="http://www.w3.org/1999/xlink" width="12px" height="12px" viewBox="1216 866.5  12 12" xmlns="http://www.w3.org/2000/svg">
  <path d="M 1222 866.5  C 1225.36 866.5  1228 869.14  1228 872.5  C 1228 875.86  1225.36 878.5  1222 878.5  C 1218.64 878.5  1216 875.86  1216 872.5  C 1216 869.14  1218.64 866.5  1222 866.5  Z " fill-rule="nonzero" fill="#f0f0f0" stroke="none" />
  <path d="M 1222 867  C 1225.08 867  1227.5 869.42  1227.5 872.5  C 1227.5 875.58  1225.08 878  1222 878  C 1218.92 878  1216.5 875.58  1216.5 872.5  C 1216.5 869.42  1218.92 867  1222 867  Z " stroke-width="1" stroke="#797979" fill="none" />
  <path d="M 1222 875.5  C 1220.32 875.5  1219 874.18  1219 872.5  C 1219 870.82  1220.32 869.5  1222 869.5  C 1223.68 869.5  1225 870.82  1225 872.5  C 1225 874.18  1223.68 875.5  1222 875.5  " fill-rule="nonzero" fill="#797979" stroke="none" />
</svg>