<?xml version="1.0" encoding="utf-8"?>
<svg version="1.1" xmlns:xlink="http://www.w3.org/1999/xlink" width="12px" height="12px" viewBox="1339 1066.5  12 12" xmlns="http://www.w3.org/2000/svg">
  <path d="M 1345 1066.5  C 1348.36 1066.5  1351 1069.14  1351 1072.5  C 1351 1075.86  1348.36 1078.5  1345 1078.5  C 1341.64 1078.5  1339 1075.86  1339 1072.5  C 1339 1069.14  1341.64 1066.5  1345 1066.5  Z " fill-rule="nonzero" fill="#f0f0f0" stroke="none" />
  <path d="M 1345 1067  C 1348.08 1067  1350.5 1069.42  1350.5 1072.5  C 1350.5 1075.58  1348.08 1078  1345 1078  C 1341.92 1078  1339.5 1075.58  1339.5 1072.5  C 1339.5 1069.42  1341.92 1067  1345 1067  Z " stroke-width="1" stroke="#797979" fill="none" />
  <path d="M 1345 1075.5  C 1343.32 1075.5  1342 1074.18  1342 1072.5  C 1342 1070.82  1343.32 1069.5  1345 1069.5  C 1346.68 1069.5  1348 1070.82  1348 1072.5  C 1348 1074.18  1346.68 1075.5  1345 1075.5  " fill-rule="nonzero" fill="#797979" stroke="none" />
</svg>