<?xml version="1.0" encoding="utf-8"?>
<svg version="1.1" xmlns:xlink="http://www.w3.org/1999/xlink" width="12px" height="12px" viewBox="1869 739.5  12 12" xmlns="http://www.w3.org/2000/svg">
  <path d="M 1875 739.5  C 1878.36 739.5  1881 742.14  1881 745.5  C 1881 748.86  1878.36 751.5  1875 751.5  C 1871.64 751.5  1869 748.86  1869 745.5  C 1869 742.14  1871.64 739.5  1875 739.5  Z " fill-rule="nonzero" fill="#f0f0f0" stroke="none" />
  <path d="M 1875 740  C 1878.08 740  1880.5 742.42  1880.5 745.5  C 1880.5 748.58  1878.08 751  1875 751  C 1871.92 751  1869.5 748.58  1869.5 745.5  C 1869.5 742.42  1871.92 740  1875 740  Z " stroke-width="1" stroke="#797979" fill="none" />
  <path d="M 1875 748.5  C 1873.32 748.5  1872 747.18  1872 745.5  C 1872 743.82  1873.32 742.5  1875 742.5  C 1876.68 742.5  1878 743.82  1878 745.5  C 1878 747.18  1876.68 748.5  1875 748.5  " fill-rule="nonzero" fill="#797979" stroke="none" />
</svg>