<?xml version="1.0" encoding="utf-8"?>
<svg version="1.1" xmlns:xlink="http://www.w3.org/1999/xlink" width="12px" height="12px" viewBox="1910 739.5  12 12" xmlns="http://www.w3.org/2000/svg">
  <path d="M 1916 739.5  C 1919.36 739.5  1922 742.14  1922 745.5  C 1922 748.86  1919.36 751.5  1916 751.5  C 1912.64 751.5  1910 748.86  1910 745.5  C 1910 742.14  1912.64 739.5  1916 739.5  Z " fill-rule="nonzero" fill="#ffffff" stroke="none" />
  <path d="M 1916 740  C 1919.08 740  1921.5 742.42  1921.5 745.5  C 1921.5 748.58  1919.08 751  1916 751  C 1912.92 751  1910.5 748.58  1910.5 745.5  C 1910.5 742.42  1912.92 740  1916 740  Z " stroke-width="1" stroke="#797979" fill="none" />
  <path d="M 1916 748.5  C 1914.32 748.5  1913 747.18  1913 745.5  C 1913 743.82  1914.32 742.5  1916 742.5  C 1917.68 742.5  1919 743.82  1919 745.5  C 1919 747.18  1917.68 748.5  1916 748.5  " fill-rule="nonzero" fill="#797979" stroke="none" />
</svg>